HIERARCHY
ROOT Hips
{
	OFFSET 0.000000 0.000000 0.000000
	CHANNELS 6 Xposition Yposition Zposition Zrotation Yrotation Xrotation 
	JOINT LHipJoint
	{
		OFFSET 0.000000 0.000000 0.000000
		CHANNELS 3 Zrotation Yrotation Xrotation
		JOINT LeftUpLeg
		{
			OFFSET 1.363060 -1.794630 0.839290
			CHANNELS 3 Zrotation Yrotation Xrotation
			JOINT LeftLeg
			{
				OFFSET 2.448110 -6.726130 0.000000
				CHANNELS 3 Zrotation Yrotation Xrotation
				JOINT LeftFoot
				{
					OFFSET 2.562200 -7.039590 0.000000
					CHANNELS 3 Zrotation Yrotation Xrotation
					JOINT LeftToeBase
					{
						OFFSET 0.157640 -0.433110 2.322550
						CHANNELS 3 Zrotation Yrotation Xrotation
						End Site
						{
							OFFSET 0.000000 0.000000 0.000000
						}
					}
				}
			}
		}
	}
	JOINT RHipJoint
	{
		OFFSET 0.000000 0.000000 0.000000
		CHANNELS 3 Zrotation Yrotation Xrotation
		JOINT RightUpLeg
		{
			OFFSET -1.305520 -1.794630 0.839290
			CHANNELS 3 Zrotation Yrotation Xrotation
			JOINT RightLeg
			{
				OFFSET -2.542530 -6.985550 0.000000
				CHANNELS 3 Zrotation Yrotation Xrotation
				JOINT RightFoot
				{
					OFFSET -2.568260 -7.056230 0.000000
					CHANNELS 3 Zrotation Yrotation Xrotation
					JOINT RightToeBase
					{
						OFFSET -0.164730 -0.452590 2.363150
						CHANNELS 3 Zrotation Yrotation Xrotation
						End Site
						{
							OFFSET 0.000000 0.000000 0.000000
						}
					}
				}
			}
		}
	}
	JOINT LowerBack
	{
		OFFSET 0.000000 0.000000 0.000000
		CHANNELS 3 Zrotation Yrotation Xrotation
		JOINT Spine
		{
			OFFSET 0.028270 2.035590 -0.193380
			CHANNELS 3 Zrotation Yrotation Xrotation
			JOINT Spine1
			{
				OFFSET 0.056720 2.048850 -0.042750
				CHANNELS 3 Zrotation Yrotation Xrotation
				JOINT Neck
				{
					OFFSET 0.000000 0.000000 0.000000
					CHANNELS 3 Zrotation Yrotation Xrotation
					JOINT Neck1
					{
						OFFSET -0.054170 1.746240 0.172020
						CHANNELS 3 Zrotation Yrotation Xrotation
						JOINT Head
						{
							OFFSET 0.104070 1.761360 -0.123970
							CHANNELS 3 Zrotation Yrotation Xrotation
							End Site
							{
								OFFSET 0.000000 0.000000 0.000000
							}
						}
					}
				}
				JOINT LeftShoulder
				{
					OFFSET 0.000000 0.000000 0.000000
					CHANNELS 3 Zrotation Yrotation Xrotation
					JOINT LeftArm
					{
						OFFSET 3.362410 1.200890 -0.311210
						CHANNELS 3 Zrotation Yrotation Xrotation
						JOINT LeftForeArm
						{
							OFFSET 4.983000 -0.000000 -0.000000
							CHANNELS 3 Zrotation Yrotation Xrotation
							JOINT LeftHand
							{
								OFFSET 3.483560 -0.000000 -0.000000
								CHANNELS 3 Zrotation Yrotation Xrotation
								JOINT LeftFingerBase
								{
									OFFSET 0.000000 0.000000 0.000000
									CHANNELS 3 Zrotation Yrotation Xrotation
									JOINT LeftHandIndex1
									{
										OFFSET 0.715260 -0.000000 -0.000000
										CHANNELS 3 Zrotation Yrotation Xrotation
										End Site
										{
											OFFSET 0.000000 0.000000 0.000000
										}
									}
								}
								JOINT LThumb
								{
									OFFSET 0.000000 0.000000 0.000000
									CHANNELS 3 Zrotation Yrotation Xrotation
									End Site
									{
										OFFSET 0.000000 0.000000 0.000000
									}
								}
							}
						}
					}
				}
				JOINT RightShoulder
				{
					OFFSET 0.000000 0.000000 0.000000
					CHANNELS 3 Zrotation Yrotation Xrotation
					JOINT RightArm
					{
						OFFSET -3.136600 1.374050 -0.404650
						CHANNELS 3 Zrotation Yrotation Xrotation
						JOINT RightForeArm
						{
							OFFSET -5.241900 -0.000000 -0.000000
							CHANNELS 3 Zrotation Yrotation Xrotation
							JOINT RightHand
							{
								OFFSET -3.444170 -0.000000 -0.000000
								CHANNELS 3 Zrotation Yrotation Xrotation
								JOINT RightFingerBase
								{
									OFFSET 0.000000 0.000000 0.000000
									CHANNELS 3 Zrotation Yrotation Xrotation
									JOINT RightHandIndex1
									{
										OFFSET -0.622530 -0.000000 -0.000000
										CHANNELS 3 Zrotation Yrotation Xrotation
										End Site
										{
											OFFSET 0.000000 0.000000 0.000000
										}
									}
								}
								JOINT RThumb
								{
									OFFSET 0.000000 0.000000 0.000000
									CHANNELS 3 Zrotation Yrotation Xrotation
									End Site
									{
										OFFSET 0.000000 0.000000 0.000000
									}
								}
							}
						}
					}
				}
			}
		}
	}
}
MOTION
Frames: 7
Frame Time: 0.008333
26.075969 15.071986 2.641413 -145.925734 -85.234842 179.489003 -8.100330 -1.370316 0.467406 -12.797145 -4.852056 -82.695185 -0.541025 5.075365 61.906357 2.266539 7.580210 -14.676040 -0.595300 0.000000 -17.072599 10.403173 -1.577129 -4.307921 10.626795 -7.347355 -18.626304 2.576749 -2.408786 45.317759 -0.384191 4.900653 -22.553121 -0.548500 -0.000000 -67.597299 -5.680135 1.254287 6.584169 -2.115325 1.587494 -1.894679 -5.695520 1.573409 -0.780975 9.943481 -6.406894 -8.959351 -2.707857 -0.157270 -0.866227 0.000000 0.000000 0.000000 0.494041 15.901960 2.987249 -70.437490 25.680990 5.747651 -0.361964 -82.656632 0.000523 0.229903 -0.238593 -0.000273 -0.009403 0.141808 -0.000000 0.000000 0.000000 0.000000 0.000000 0.000000 0.000000 11.466679 1.355501 0.922132 63.045028 18.760249 13.896194 -0.071575 89.549929 -0.000757 -1.271028 6.150860 -0.076949 0.073753 -0.496743 -0.000000 0.000000 0.000000 0.000000 0.000000 0.000000 0.000000 
25.879100 15.052786 2.642500 -147.900769 -85.097126 -178.922787 -8.185515 -1.387926 0.292737 -13.022452 -4.454468 -82.071237 -0.464777 5.175745 63.319812 2.323313 7.737485 -15.834932 -0.817901 0.000000 -15.832600 10.454909 -1.682147 -4.274112 10.164359 -7.480981 -17.930370 2.377456 -2.485043 45.745795 -0.247763 4.932153 -20.622783 -0.538600 0.000000 -70.319100 -6.182528 1.272391 6.646950 -2.231220 1.615166 -1.897362 -5.753309 1.601336 -0.826752 10.058119 -6.271577 -8.880134 -2.732833 -0.160076 -0.843396 0.000000 0.000000 0.000000 0.387852 15.804649 2.976940 -70.150835 25.280853 5.669561 -0.374077 -82.501001 0.000286 0.340372 -0.207992 -0.000559 -0.012633 0.141009 -0.000000 0.000000 0.000000 0.000000 0.000000 0.000000 0.000000 11.671833 1.491979 0.939148 63.375403 18.537447 14.129581 -0.035707 88.994659 -0.000483 -1.223003 6.162236 -0.074147 0.071794 -0.494260 -0.000000 0.000000 0.000000 0.000000 0.000000 0.000000 0.000000 
25.683206 15.036040 2.644906 -149.356892 -84.960782 -177.841233 -8.262324 -1.397480 0.127681 -13.216983 -4.074338 -81.378388 -0.405904 5.257699 64.604665 2.394276 7.919919 -17.138186 -1.073501 0.000000 -14.936000 10.517223 -1.784750 -4.237718 9.739962 -7.583003 -17.342865 2.156958 -2.574037 46.304972 -0.125868 4.915838 -18.553964 -0.500700 -0.000000 -72.590600 -6.621811 1.286232 6.701288 -2.332517 1.637158 -1.899600 -5.808494 1.623401 -0.865591 10.156675 -6.132134 -8.794182 -2.758307 -0.163008 -0.818457 0.000000 0.000000 0.000000 0.247792 15.710173 2.961135 -69.865879 24.782071 5.607225 -0.388227 -82.301977 0.000040 0.459820 -0.176520 -0.000741 -0.016185 0.140582 -0.000000 0.000000 0.000000 0.000000 0.000000 0.000000 0.000000 11.868181 1.619579 0.953088 63.729075 18.311892 14.374198 0.007434 88.317936 -0.000197 -1.173899 6.182825 -0.071350 0.069716 -0.490966 -0.000000 0.000000 0.000000 0.000000 0.000000 0.000000 0.000000 
25.488910 15.021661 2.648733 -150.335035 -84.818966 -177.218817 -8.331660 -1.397365 -0.022745 -13.367870 -3.717610 -80.632549 -0.359634 5.322334 65.763075 2.479281 8.139933 -18.519730 -1.355500 0.000000 -14.412500 10.588507 -1.879471 -4.197522 9.363930 -7.648118 -16.881278 1.916459 -2.671543 47.012438 -0.028306 4.822666 -16.406527 -0.433200 -0.000000 -74.252400 -6.997174 1.297355 6.740626 -2.419102 1.654980 -1.902602 -5.860565 1.641087 -0.896702 10.238800 -5.990344 -8.704793 -2.783596 -0.165975 -0.792234 0.000000 0.000000 0.000000 0.078309 15.623281 2.940470 -69.591319 24.185606 5.556778 -0.404437 -82.058927 -0.000220 0.583027 -0.144256 -0.000920 -0.019975 0.140546 -0.000000 0.000000 0.000000 0.000000 0.000000 0.000000 0.000000 12.052036 1.738311 0.963810 64.107120 18.084057 14.626780 0.057321 87.522283 0.000078 -1.126646 6.208923 -0.068755 0.067587 -0.486861 -0.000000 0.000000 0.000000 0.000000 0.000000 0.000000 0.000000 
25.296092 15.009605 2.653957 -150.875009 -84.667210 -177.007682 -8.394656 -1.387466 -0.154720 -13.467175 -3.388895 -79.851453 -0.321205 5.371017 66.800284 2.576641 8.404955 -19.912707 -1.656200 -0.000000 -14.267900 10.666571 -1.961651 -4.152415 9.046517 -7.671667 -16.561268 1.659349 -2.773088 47.879663 0.035833 4.616624 -14.256567 -0.340100 0.000000 -75.212700 -7.308945 1.306663 6.759703 -2.491259 1.669593 -1.907919 -5.909686 1.655282 -0.921785 10.304990 -5.847974 -8.614129 -2.808565 -0.168946 -0.765287 0.000000 0.000000 0.000000 -0.120448 15.537834 2.915573 -69.332116 23.504677 5.506490 -0.422345 -81.780283 -0.000484 0.705414 -0.110807 -0.000998 -0.023889 0.140895 -0.000000 0.000000 0.000000 0.000000 0.000000 0.000000 0.000000 12.222852 1.847976 0.972846 64.508376 17.852093 14.882443 0.113149 86.613586 0.000319 -1.084633 6.236896 -0.066361 0.065514 -0.481984 -0.000000 0.000000 0.000000 0.000000 0.000000 0.000000 0.000000 
25.105300 14.999748 2.660579 -150.973146 -84.499760 -177.203658 -8.451510 -1.368375 -0.265631 -13.508093 -3.087063 -79.056739 -0.286182 5.405682 67.725486 2.683073 8.715124 -21.257117 -1.967700 0.000000 -14.475200 10.749674 -2.027319 -4.100378 8.802008 -7.644860 -16.394928 1.390866 -2.873902 48.912261 0.058885 4.255389 -12.197185 -0.232800 -0.000001 -75.433500 -7.554938 1.315968 6.753500 -2.548675 1.682872 -1.915859 -5.955212 1.667879 -0.938024 10.356462 -5.704916 -8.528286 -2.832885 -0.171810 -0.739413 0.000000 0.000000 0.000000 -0.330779 15.470033 2.888522 -69.102554 22.720144 5.465411 -0.442705 -81.446935 -0.000748 0.824581 -0.076886 -0.000973 -0.027922 0.141715 -0.000000 0.000000 0.000000 0.000000 0.000000 0.000000 0.000000 12.379299 1.951821 0.979168 64.929707 17.611864 15.129344 0.173564 85.605594 0.000514 -1.048002 6.261690 -0.064270 0.063458 -0.476384 -0.000000 0.000000 0.000000 0.000000 0.000000 0.000000 0.000000 
24.916675 14.992301 2.667941 -150.975516 -84.332715 -177.459807 -8.509126 -1.345803 -0.357429 -13.516984 -2.822666 -78.247860 -0.253382 5.427028 68.539194 2.795387 9.070314 -22.506828 -2.283000 0.000000 -14.967300 10.830460 -2.076928 -4.046393 8.608279 -7.590237 -16.392496 1.118059 -2.974812 50.114784 0.038372 3.712659 -10.304358 -0.128900 -0.000001 -74.934401 -7.765843 1.318362 6.727373 -2.597861 1.688646 -1.927715 -5.998427 1.672621 -0.955956 10.398294 -5.564574 -8.443404 -2.857847 -0.174716 -0.713707 0.000000 0.000000 0.000000 -0.572449 15.371876 2.859645 -68.887855 21.895496 5.390625 -0.463118 -81.114252 -0.001025 0.941019 -0.036946 -0.000847 -0.031884 0.142855 -0.000000 0.000000 0.000000 0.000000 0.000000 0.000000 0.000000 12.533004 2.043428 0.989557 65.370230 17.366751 15.371340 0.237987 84.501154 0.000625 -1.024782 6.282389 -0.062979 0.061685 -0.470182 -0.000000 0.000000 0.000000 0.000000 0.000000 0.000000 0.000000 
